<?xml version="1.0" encoding="UTF-8" standalone="no"?>
<!DOCTYPE svg PUBLIC "-//W3C//DTD SVG 1.1//EN" "http://www.w3.org/Graphics/SVG/1.1/DTD/svg11.dtd">
<!-- Generated by Microsoft Visio, SVG Export Drawing24.svg Page-1 -->
<svg xmlns="http://www.w3.org/2000/svg" xmlns:xlink="http://www.w3.org/1999/xlink" xmlns:ev="http://www.w3.org/2001/xml-events"
		xmlns:v="http://schemas.microsoft.com/visio/2003/SVGExtensions/" width="8.5in" height="11in" viewBox="0 0 612 792"
		xml:space="preserve" color-interpolation-filters="sRGB" class="st11">
	<v:documentProperties v:langID="1033" v:viewMarkup="false">
		<v:userDefs>
			<v:ud v:nameU="msvNoAutoConnect" v:val="VT0(1):26"/>
		</v:userDefs>
	</v:documentProperties>

	<style type="text/css">
	<![CDATA[
		.st1 {fill:#7f7f7f;stroke:#002060;stroke-linecap:round;stroke-linejoin:round;stroke-width:0.75}
		.st2 {fill:#ffffff;font-family:Calibri Light;font-size:0.833336em;font-weight:bold}
		.st3 {marker-end:url(#mrkr4-12);stroke:#ff8c00;stroke-linecap:round;stroke-linejoin:round;stroke-width:0.75}
		.st4 {fill:#ff8c00;fill-opacity:1;stroke:#ff8c00;stroke-opacity:1;stroke-width:0.22935779816514}
		.st5 {fill:#7f7f7f;stroke:#9a3edf;stroke-linecap:round;stroke-linejoin:round;stroke-width:1}
		.st6 {fill:#7f7f7f;stroke:#ff0606;stroke-linecap:round;stroke-linejoin:round;stroke-width:1}
		.st7 {marker-end:url(#mrkr4-145);stroke:#00b0f0;stroke-linecap:round;stroke-linejoin:round;stroke-width:0.75}
		.st8 {fill:#00b0f0;fill-opacity:1;stroke:#00b0f0;stroke-opacity:1;stroke-width:0.22935779816514}
		.st9 {marker-end:url(#mrkr4-179);stroke:#02e83c;stroke-linecap:round;stroke-linejoin:round;stroke-width:0.75}
		.st10 {fill:#02e83c;fill-opacity:1;stroke:#02e83c;stroke-opacity:1;stroke-width:0.22935779816514}
		.st11 {fill:none;fill-rule:evenodd;font-size:12px;overflow:visible;stroke-linecap:square;stroke-miterlimit:3}
	]]>
	</style>

	<defs id="Markers">
		<g id="lend4">
			<path d="M 2 1 L 0 0 L 2 -1 L 2 1 " style="stroke:none"/>
		</g>
		<marker id="mrkr4-12" class="st4" v:arrowType="4" v:arrowSize="2" v:setback="8.72" refX="-8.72" orient="auto"
				markerUnits="strokeWidth" overflow="visible">
			<use xlink:href="#lend4" transform="scale(-4.36,-4.36) "/>
		</marker>
		<marker id="mrkr4-145" class="st8" v:arrowType="4" v:arrowSize="2" v:setback="8.72" refX="-8.72" orient="auto"
				markerUnits="strokeWidth" overflow="visible">
			<use xlink:href="#lend4" transform="scale(-4.36,-4.36) "/>
		</marker>
		<marker id="mrkr4-179" class="st10" v:arrowType="4" v:arrowSize="2" v:setback="8.72" refX="-8.72" orient="auto"
				markerUnits="strokeWidth" overflow="visible">
			<use xlink:href="#lend4" transform="scale(-4.36,-4.36) "/>
		</marker>
	</defs>
	<g v:mID="0" v:index="1" v:groupContext="foregroundPage">
		<title>Page-1</title>
		<v:pageProperties v:drawingScale="1" v:pageScale="1" v:drawingUnits="19" v:shadowOffsetX="9" v:shadowOffsetY="-9"/>
		<v:layer v:name="Connector" v:index="0"/>
		<g id="shape1-1" v:mID="1" v:groupContext="shape" transform="translate(306,-466.74)">
			<title>Rectangle.1</title>
			<desc>Logistic (Model 5)</desc>
			<v:userDefs>
				<v:ud v:nameU="visVersion" v:val="VT0(15):26"/>
			</v:userDefs>
			<v:textBlock v:margins="rect(4,4,4,4)"/>
			<v:textRect cx="54" cy="783" width="108" height="18"/>
			<rect x="0" y="774" width="108" height="18" class="st1"/>
			<text x="18.91" y="786" class="st2" v:langID="1033"><v:paragraph v:horizAlign="1"/><v:tabList/>Logistic (Model 5)</text>		</g>
		<g id="shape2-4" v:mID="2" v:groupContext="shape" transform="translate(306,-436.23)">
			<title>Rectangle.2</title>
			<desc>Logistic (Model 6)</desc>
			<v:userDefs>
				<v:ud v:nameU="visVersion" v:val="VT0(15):26"/>
			</v:userDefs>
			<v:textBlock v:margins="rect(4,4,4,4)"/>
			<v:textRect cx="54" cy="783" width="108" height="18"/>
			<rect x="0" y="774" width="108" height="18" class="st1"/>
			<text x="18.91" y="786" class="st2" v:langID="1033"><v:paragraph v:horizAlign="1"/><v:tabList/>Logistic (Model 6)</text>		</g>
		<g id="shape3-7" v:mID="3" v:groupContext="shape" v:layerMember="0" transform="translate(180,-697.5)">
			<title>Dynamic connector</title>
			<path d="M0 792 L6.75 792 A6.75 6.75 0 0 1 13.5 798.75 L13.5 969.75 A13.5 13.5 -180 0 0 27 983.25 L35.51 983.25 A13.5
						 13.5 -180 0 0 43.28 980.8 A3 3 0 0 1 46.72 980.8 A13.5 13.5 -180 0 0 54.49 983.25 L59.32 983.25 A13.5 13.5
						 -180 0 0 67.1 980.78 A3.01644 3.01644 0 0 1 70.57 980.78 A13.5 13.5 -180 0 0 78.35 983.25 L119.46 983.25"
					class="st3"/>
		</g>
		<g id="shape4-13" v:mID="4" v:groupContext="shape" v:layerMember="0" transform="translate(180,-673.74)">
			<title>Dynamic connector.30</title>
			<path d="M0 792 L6.75 792 A6.75 6.75 0 0 1 13.5 798.75 L13.5 945.99 A13.5 13.5 -180 0 0 27 959.49 L35.51 959.49 A13.5
						 13.5 -180 0 0 43.28 957.04 A3 3 0 0 1 46.72 957.04 A13.5 13.5 -180 0 0 54.49 959.49 L59.32 959.49 A13.5
						 13.5 -180 0 0 67.1 957.02 A3.01644 3.01644 0 0 1 70.57 957.02 A13.5 13.5 -180 0 0 78.35 959.49 L119.46 959.49"
					class="st3"/>
		</g>
		<g id="shape5-18" v:mID="5" v:groupContext="shape" v:layerMember="0" transform="translate(180,-649.26)">
			<title>Dynamic connector.31</title>
			<path d="M0 792 L6.75 792 A6.75 6.75 0 0 1 13.5 798.75 L13.5 921.51 A13.5 13.5 -180 0 0 27 935.01 L35.51 935.01 A13.5
						 13.5 -180 0 0 43.28 932.56 A3 3 0 0 1 46.72 932.56 A13.5 13.5 -180 0 0 54.49 935.01 L59.32 935.01 A13.5
						 13.5 -180 0 0 67.1 932.54 A3.01644 3.01644 0 0 1 70.57 932.54 A13.5 13.5 -180 0 0 78.35 935.01 L119.46 935.01"
					class="st3"/>
		</g>
		<g id="shape6-23" v:mID="6" v:groupContext="shape" v:layerMember="0" transform="translate(180,-625.5)">
			<title>Dynamic connector.32</title>
			<path d="M0 792 L6.75 792 A6.75 6.75 0 0 1 13.5 798.75 L13.5 897.75 A13.5 13.5 -180 0 0 27 911.25 L35.51 911.25 A13.5
						 13.5 -180 0 0 43.28 908.8 A3 3 0 0 1 46.72 908.8 A13.5 13.5 -180 0 0 54.49 911.25 L59.32 911.25 A13.5 13.5
						 -180 0 0 67.1 908.78 A3.01644 3.01644 0 0 1 70.57 908.78 A13.5 13.5 -180 0 0 78.35 911.25 L119.46 911.25"
					class="st3"/>
		</g>
		<g id="shape7-28" v:mID="7" v:groupContext="shape" v:layerMember="0" transform="translate(180,-603)">
			<title>Dynamic connector.33</title>
			<path d="M0 792 L6.75 792 A6.75 6.75 0 0 1 13.5 798.75 L13.5 875.25 A13.5 13.5 -180 0 0 27 888.75 L35.51 888.75 A13.5
						 13.5 -180 0 0 43.28 886.3 A3 3 0 0 1 46.72 886.3 A13.5 13.5 -180 0 0 54.49 888.75 L59.32 888.75 A13.5 13.5
						 -180 0 0 67.1 886.28 A3.01644 3.01644 0 0 1 70.57 886.28 A13.5 13.5 -180 0 0 78.35 888.75 L119.46 888.75"
					class="st3"/>
		</g>
		<g id="shape8-33" v:mID="8" v:groupContext="shape" v:layerMember="0" transform="translate(180,-579.24)">
			<title>Dynamic connector.34</title>
			<path d="M0 792 L6.75 792 A6.75 6.75 0 0 1 13.5 798.75 L13.5 851.49 A13.5 13.5 -180 0 0 27 864.99 L35.51 864.99 A13.5
						 13.5 -180 0 0 43.28 862.54 A3 3 0 0 1 46.72 862.54 A13.5 13.5 -180 0 0 54.49 864.99 L59.32 864.99 A13.5
						 13.5 -180 0 0 67.1 862.52 A3.01644 3.01644 0 0 1 70.57 862.52 A13.5 13.5 -180 0 0 78.35 864.99 L119.46 864.99"
					class="st3"/>
		</g>
		<g id="shape9-38" v:mID="9" v:groupContext="shape" v:layerMember="0" transform="translate(180,-554.76)">
			<title>Dynamic connector.35</title>
			<path d="M0 792 L6.75 792 A6.75 6.75 0 0 1 13.5 798.75 L13.5 827.01 A13.5 13.5 -180 0 0 27 840.51 L35.51 840.51 A13.5
						 13.5 -180 0 0 43.28 838.06 A3 3 0 0 1 46.72 838.06 A13.5 13.5 -180 0 0 54.49 840.51 L59.32 840.51 A13.5
						 13.5 -180 0 0 67.1 838.04 A3.01644 3.01644 0 0 1 70.57 838.04 A13.5 13.5 -180 0 0 78.35 840.51 L119.46 840.51"
					class="st3"/>
		</g>
		<g id="shape10-43" v:mID="10" v:groupContext="shape" v:layerMember="0" transform="translate(180,-531)">
			<title>Dynamic connector.36</title>
			<path d="M0 792 L6.75 792 A6.75 6.75 0 0 1 13.5 798.75 L13.5 803.25 A13.5 13.5 -180 0 0 27 816.75 L35.51 816.75 A13.5
						 13.5 -180 0 0 43.28 814.3 A3 3 0 0 1 46.72 814.3 A13.5 13.5 -180 0 0 54.49 816.75 L59.32 816.75 A13.5 13.5
						 -180 0 0 67.1 814.28 A3.01644 3.01644 0 0 1 70.57 814.28 A13.5 13.5 -180 0 0 78.35 816.75 L119.46 816.75"
					class="st3"/>
		</g>
		<g id="shape11-48" v:mID="11" v:groupContext="shape" v:layerMember="0" transform="translate(180,-515.25)">
			<title>Dynamic connector.11</title>
			<path d="M0 801 L35.51 801 A13.5 13.5 -180 0 0 43.28 798.55 A3 3 0 0 1 46.72 798.55 A13.5 13.5 -180 0 0 54.49 801 L59.32
						 801 A13.5 13.5 -180 0 0 67.1 798.53 A3.01644 3.01644 0 0 1 70.57 798.53 A13.5 13.5 -180 0 0 78.35 801 L119.46
						 801" class="st3"/>
		</g>
		<g id="shape12-53" v:mID="12" v:groupContext="shape" v:layerMember="0" transform="translate(180,-482.49)">
			<title>Dynamic connector.12</title>
			<path d="M0 792 L6.75 792 A6.75 6.75 -180 0 0 13.5 785.25 L13.5 781.74 A13.5 13.5 0 0 1 27 768.24 L35.51 768.24 A13.5
						 13.5 -180 0 0 43.28 765.79 A3 3 0 0 1 46.72 765.79 A13.5 13.5 -180 0 0 54.49 768.24 L59.32 768.24 A13.5
						 13.5 -180 0 0 67.1 765.77 A3.01644 3.01644 0 0 1 70.57 765.77 A13.5 13.5 -180 0 0 78.35 768.24 L119.46 768.24"
					class="st3"/>
		</g>
		<g id="shape13-58" v:mID="13" v:groupContext="shape" v:layerMember="0" transform="translate(180,-458.01)">
			<title>Dynamic connector.39</title>
			<path d="M0 792 L6.75 792 A6.75 6.75 -180 0 0 13.5 785.25 L13.5 757.26 A13.5 13.5 0 0 1 27 743.76 L35.51 743.76 A13.5
						 13.5 -180 0 0 43.28 741.31 A3 3 0 0 1 46.72 741.31 A13.5 13.5 -180 0 0 54.49 743.76 L59.32 743.76 A13.5
						 13.5 -180 0 0 67.1 741.29 A3.01644 3.01644 0 0 1 70.57 741.29 A13.5 13.5 -180 0 0 78.35 743.76 L119.46 743.76"
					class="st3"/>
		</g>
		<g id="shape14-63" v:mID="14" v:groupContext="shape" v:layerMember="0" transform="translate(180,-434.25)">
			<title>Dynamic connector.14</title>
			<path d="M0 792 L6.75 792 A6.75 6.75 -180 0 0 13.5 785.25 L13.5 733.5 A13.5 13.5 0 0 1 27 720 L35.51 720 A13.5 13.5 -180
						 0 0 43.28 717.55 A3 3 0 0 1 46.72 717.55 A13.5 13.5 -180 0 0 54.49 720 L59.32 720 A13.5 13.5 -180 0 0 67.1
						 717.53 A3.01644 3.01644 0 0 1 70.57 717.53 A13.5 13.5 -180 0 0 78.35 720 L119.46 720" class="st3"/>
		</g>
		<g id="shape15-68" v:mID="15" v:groupContext="shape" v:layerMember="0" transform="translate(180,-411.75)">
			<title>Dynamic connector.15</title>
			<path d="M0 792 L6.75 792 A6.75 6.75 -180 0 0 13.5 785.25 L13.5 711 A13.5 13.5 0 0 1 27 697.5 L35.51 697.5 A13.5 13.5
						 -180 0 0 43.28 695.05 A3 3 0 0 1 46.72 695.05 A13.5 13.5 -180 0 0 54.49 697.5 L59.32 697.5 A13.5 13.5 -180
						 0 0 67.1 695.03 A3.01644 3.01644 0 0 1 70.57 695.03 A13.5 13.5 -180 0 0 78.35 697.5 L119.46 697.5"
					class="st3"/>
		</g>
		<g id="shape16-73" v:mID="16" v:groupContext="shape" v:layerMember="0" transform="translate(180,-387.99)">
			<title>Dynamic connector.16</title>
			<path d="M0 792 L6.75 792 A6.75 6.75 -180 0 0 13.5 785.25 L13.5 687.24 A13.5 13.5 0 0 1 27 673.74 L35.51 673.74 A13.5
						 13.5 -180 0 0 43.28 671.29 A3 3 0 0 1 46.72 671.29 A13.5 13.5 -180 0 0 54.49 673.74 L59.32 673.74 A13.5
						 13.5 -180 0 0 67.1 671.27 A3.01644 3.01644 0 0 1 70.57 671.27 A13.5 13.5 -180 0 0 78.35 673.74 L119.46 673.74"
					class="st3"/>
		</g>
		<g id="shape17-78" v:mID="17" v:groupContext="shape" v:layerMember="0" transform="translate(180,-363.51)">
			<title>Dynamic connector.17</title>
			<path d="M0 792 L6.75 792 A6.75 6.75 -180 0 0 13.5 785.25 L13.5 662.76 A13.5 13.5 0 0 1 27 649.26 L35.51 649.26 A13.5
						 13.5 -180 0 0 43.28 646.81 A3 3 0 0 1 46.72 646.81 A13.5 13.5 -180 0 0 54.49 649.26 L59.32 649.26 A13.5
						 13.5 -180 0 0 67.1 646.79 A3.01644 3.01644 0 0 1 70.57 646.79 A13.5 13.5 -180 0 0 78.35 649.26 L119.46 649.26"
					class="st3"/>
		</g>
		<g id="shape18-83" v:mID="18" v:groupContext="shape" transform="translate(72,-688.5)">
			<title>Rectangle.18</title>
			<desc>shot_distance</desc>
			<v:userDefs>
				<v:ud v:nameU="visVersion" v:val="VT0(15):26"/>
			</v:userDefs>
			<v:textBlock v:margins="rect(4,4,4,4)"/>
			<v:textRect cx="54" cy="783" width="108" height="18"/>
			<rect x="0" y="774" width="108" height="18" class="st5"/>
			<text x="26.42" y="786" class="st2" v:langID="1033"><v:paragraph v:horizAlign="1"/><v:tabList/>shot_distance</text>		</g>
		<g id="shape19-86" v:mID="19" v:groupContext="shape" transform="translate(72,-664.74)">
			<title>Rectangle.6</title>
			<desc>playoffs</desc>
			<v:userDefs>
				<v:ud v:nameU="visVersion" v:val="VT0(15):26"/>
			</v:userDefs>
			<v:textBlock v:margins="rect(4,4,4,4)"/>
			<v:textRect cx="54" cy="783" width="108" height="18"/>
			<rect x="0" y="774" width="108" height="18" class="st6"/>
			<text x="38.5" y="786" class="st2" v:langID="1033"><v:paragraph v:horizAlign="1"/><v:tabList/>playoffs</text>		</g>
		<g id="shape20-89" v:mID="20" v:groupContext="shape" transform="translate(72,-640.26)">
			<title>Rectangle.7</title>
			<desc>arena_temp</desc>
			<v:userDefs>
				<v:ud v:nameU="visVersion" v:val="VT0(15):26"/>
			</v:userDefs>
			<v:textBlock v:margins="rect(4,4,4,4)"/>
			<v:textRect cx="54" cy="783" width="108" height="18"/>
			<rect x="0" y="774" width="108" height="18" class="st5"/>
			<text x="29.81" y="786" class="st2" v:langID="1033"><v:paragraph v:horizAlign="1"/><v:tabList/>arena_temp</text>		</g>
		<g id="shape21-92" v:mID="21" v:groupContext="shape" transform="translate(72,-616.5)">
			<title>Rectangle.8</title>
			<desc>lat</desc>
			<v:userDefs>
				<v:ud v:nameU="visVersion" v:val="VT0(15):26"/>
			</v:userDefs>
			<v:textBlock v:margins="rect(4,4,4,4)"/>
			<v:textRect cx="54" cy="783" width="108" height="18"/>
			<rect x="0" y="774" width="108" height="18" class="st5"/>
			<text x="48.99" y="786" class="st2" v:langID="1033"><v:paragraph v:horizAlign="1"/><v:tabList/>lat</text>		</g>
		<g id="shape22-95" v:mID="22" v:groupContext="shape" transform="translate(72,-594)">
			<title>Rectangle.9</title>
			<desc>lon</desc>
			<v:userDefs>
				<v:ud v:nameU="visVersion" v:val="VT0(15):26"/>
			</v:userDefs>
			<v:textBlock v:margins="rect(4,4,4,4)"/>
			<v:textRect cx="54" cy="783" width="108" height="18"/>
			<rect x="0" y="774" width="108" height="18" class="st5"/>
			<text x="47.81" y="786" class="st2" v:langID="1033"><v:paragraph v:horizAlign="1"/><v:tabList/>lon</text>		</g>
		<g id="shape23-98" v:mID="23" v:groupContext="shape" transform="translate(72,-570.24)">
			<title>Rectangle.10</title>
			<desc>attendances</desc>
			<v:userDefs>
				<v:ud v:nameU="visVersion" v:val="VT0(15):26"/>
			</v:userDefs>
			<v:textBlock v:margins="rect(4,4,4,4)"/>
			<v:textRect cx="54" cy="783" width="108" height="18"/>
			<rect x="0" y="774" width="108" height="18" class="st5"/>
			<text x="29.67" y="786" class="st2" v:langID="1033"><v:paragraph v:horizAlign="1"/><v:tabList/>attendances</text>		</g>
		<g id="shape24-101" v:mID="24" v:groupContext="shape" transform="translate(72,-545.76)">
			<title>Rectangle.11</title>
			<desc>avgnoisedb</desc>
			<v:userDefs>
				<v:ud v:nameU="visVersion" v:val="VT0(15):26"/>
			</v:userDefs>
			<v:textBlock v:margins="rect(4,4,4,4)"/>
			<v:textRect cx="54" cy="783" width="108" height="18"/>
			<rect x="0" y="774" width="108" height="18" class="st5"/>
			<text x="31.62" y="786" class="st2" v:langID="1033"><v:paragraph v:horizAlign="1"/><v:tabList/>avgnoisedb</text>		</g>
		<g id="shape25-104" v:mID="25" v:groupContext="shape" transform="translate(72,-522)">
			<title>Rectangle.13</title>
			<desc>seconds_left_in_period</desc>
			<v:userDefs>
				<v:ud v:nameU="visVersion" v:val="VT0(15):26"/>
			</v:userDefs>
			<v:textBlock v:margins="rect(4,4,4,4)"/>
			<v:textRect cx="54" cy="783" width="108" height="18"/>
			<rect x="0" y="774" width="108" height="18" class="st5"/>
			<text x="7.62" y="786" class="st2" v:langID="1033"><v:paragraph v:horizAlign="1"/><v:tabList/>seconds_left_in_period</text>		</g>
		<g id="shape26-107" v:mID="26" v:groupContext="shape" transform="translate(72,-497.25)">
			<title>Rectangle.14</title>
			<desc>last_seconds_of_period</desc>
			<v:userDefs>
				<v:ud v:nameU="visVersion" v:val="VT0(15):26"/>
			</v:userDefs>
			<v:textBlock v:margins="rect(4,4,4,4)"/>
			<v:textRect cx="54" cy="783" width="108" height="18"/>
			<rect x="0" y="774" width="108" height="18" class="st6"/>
			<text x="6.91" y="786" class="st2" v:langID="1033"><v:paragraph v:horizAlign="1"/><v:tabList/>last_seconds_of_period</text>		</g>
		<g id="shape27-110" v:mID="27" v:groupContext="shape" transform="translate(72,-473.49)">
			<title>Rectangle.15</title>
			<desc>home_or_away</desc>
			<v:userDefs>
				<v:ud v:nameU="visVersion" v:val="VT0(15):26"/>
			</v:userDefs>
			<v:textBlock v:margins="rect(4,4,4,4)"/>
			<v:textRect cx="54" cy="783" width="108" height="18"/>
			<rect x="0" y="774" width="108" height="18" class="st6"/>
			<text x="23.24" y="786" class="st2" v:langID="1033"><v:paragraph v:horizAlign="1"/><v:tabList/>home_or_away</text>		</g>
		<g id="shape28-113" v:mID="28" v:groupContext="shape" transform="translate(72,-449.01)">
			<title>Rectangle.16</title>
			<desc>num_shots_cumulative</desc>
			<v:userDefs>
				<v:ud v:nameU="visVersion" v:val="VT0(15):26"/>
			</v:userDefs>
			<v:textBlock v:margins="rect(4,4,4,4)"/>
			<v:textRect cx="54" cy="783" width="108" height="18"/>
			<rect x="0" y="774" width="108" height="18" class="st5"/>
			<text x="7.88" y="786" class="st2" v:langID="1033"><v:paragraph v:horizAlign="1"/><v:tabList/>num_shots_cumulative</text>		</g>
		<g id="shape29-116" v:mID="29" v:groupContext="shape" transform="translate(72,-425.25)">
			<title>Rectangle.17</title>
			<desc>angle_from_basket</desc>
			<v:userDefs>
				<v:ud v:nameU="visVersion" v:val="VT0(15):26"/>
			</v:userDefs>
			<v:textBlock v:margins="rect(4,4,4,4)"/>
			<v:textRect cx="54" cy="783" width="108" height="18"/>
			<rect x="0" y="774" width="108" height="18" class="st5"/>
			<text x="15.89" y="786" class="st2" v:langID="1033"><v:paragraph v:horizAlign="1"/><v:tabList/>angle_from_basket</text>		</g>
		<g id="shape30-119" v:mID="30" v:groupContext="shape" transform="translate(72,-402.75)">
			<title>Rectangle.30</title>
			<desc>season_count</desc>
			<v:userDefs>
				<v:ud v:nameU="visVersion" v:val="VT0(15):26"/>
			</v:userDefs>
			<v:textBlock v:margins="rect(4,4,4,4)"/>
			<v:textRect cx="54" cy="783" width="108" height="18"/>
			<rect x="0" y="774" width="108" height="18" class="st5"/>
			<text x="26.56" y="786" class="st2" v:langID="1033"><v:paragraph v:horizAlign="1"/><v:tabList/>season_count</text>		</g>
		<g id="shape31-122" v:mID="31" v:groupContext="shape" transform="translate(72,-378.99)">
			<title>Rectangle.19</title>
			<desc>combined_shot_type</desc>
			<v:userDefs>
				<v:ud v:nameU="visVersion" v:val="VT0(15):26"/>
			</v:userDefs>
			<v:textBlock v:margins="rect(4,4,4,4)"/>
			<v:textRect cx="54" cy="783" width="108" height="18"/>
			<rect x="0" y="774" width="108" height="18" class="st6"/>
			<text x="12.06" y="786" class="st2" v:langID="1033"><v:paragraph v:horizAlign="1"/><v:tabList/>combined_shot_type</text>		</g>
		<g id="shape32-125" v:mID="32" v:groupContext="shape" transform="translate(72,-354.51)">
			<title>Rectangle.20</title>
			<desc>opponent</desc>
			<v:userDefs>
				<v:ud v:nameU="visVersion" v:val="VT0(15):26"/>
			</v:userDefs>
			<v:textBlock v:margins="rect(4,4,4,4)"/>
			<v:textRect cx="54" cy="783" width="108" height="18"/>
			<rect x="0" y="774" width="108" height="18" class="st6"/>
			<text x="34.65" y="786" class="st2" v:langID="1033"><v:paragraph v:horizAlign="1"/><v:tabList/>opponent</text>		</g>
		<g id="shape33-128" v:mID="33" v:groupContext="shape" transform="translate(72,-306)">
			<title>Rectangle.21</title>
			<desc>minutes_remaining</desc>
			<v:userDefs>
				<v:ud v:nameU="visVersion" v:val="VT0(15):26"/>
			</v:userDefs>
			<v:textBlock v:margins="rect(4,4,4,4)"/>
			<v:textRect cx="54" cy="783" width="108" height="18"/>
			<rect x="0" y="774" width="108" height="18" class="st5"/>
			<text x="15.69" y="786" class="st2" v:langID="1033"><v:paragraph v:horizAlign="1"/><v:tabList/>minutes_remaining</text>		</g>
		<g id="shape34-131" v:mID="34" v:groupContext="shape" transform="translate(72,-281.25)">
			<title>Rectangle.22</title>
			<desc>seconds_remaining</desc>
			<v:userDefs>
				<v:ud v:nameU="visVersion" v:val="VT0(15):26"/>
			</v:userDefs>
			<v:textBlock v:margins="rect(4,4,4,4)"/>
			<v:textRect cx="54" cy="783" width="108" height="18"/>
			<rect x="0" y="774" width="108" height="18" class="st5"/>
			<text x="15.72" y="786" class="st2" v:langID="1033"><v:paragraph v:horizAlign="1"/><v:tabList/>seconds_remaining</text>		</g>
		<g id="shape35-134" v:mID="35" v:groupContext="shape" transform="translate(72,-330.75)">
			<title>Rectangle.23</title>
			<desc>game_event_id</desc>
			<v:userDefs>
				<v:ud v:nameU="visVersion" v:val="VT0(15):26"/>
			</v:userDefs>
			<v:textBlock v:margins="rect(4,4,4,4)"/>
			<v:textRect cx="54" cy="783" width="108" height="18"/>
			<rect x="0" y="774" width="108" height="18" class="st5"/>
			<text x="23.4" y="786" class="st2" v:langID="1033"><v:paragraph v:horizAlign="1"/><v:tabList/>game_event_id</text>		</g>
		<g id="shape36-137" v:mID="36" v:groupContext="shape" transform="translate(306,-497.25)">
			<title>Rectangle.26</title>
			<desc>Logistic (Model 2)</desc>
			<v:userDefs>
				<v:ud v:nameU="visVersion" v:val="VT0(15):26"/>
			</v:userDefs>
			<v:textBlock v:margins="rect(4,4,4,4)"/>
			<v:textRect cx="54" cy="783" width="108" height="18"/>
			<rect x="0" y="774" width="108" height="18" class="st1"/>
			<text x="18.91" y="786" class="st2" v:langID="1033"><v:paragraph v:horizAlign="1"/><v:tabList/>Logistic (Model 2)</text>		</g>
		<g id="shape37-140" v:mID="37" v:groupContext="shape" v:layerMember="0" transform="translate(180,-697.5)">
			<title>Dynamic connector.75</title>
			<path d="M0 792 L36 792 A9 9 0 0 1 45 801 L45 1004.76 A9 9 -180 0 0 54 1013.76 L60.87 1013.76 A9 9 -180 0 0 66.83 1011.5
						 A3.01644 3.01644 0 0 1 70.83 1011.5 A9 9 -180 0 0 76.8 1013.76 L119.46 1013.76" class="st7"/>
		</g>
		<g id="shape38-146" v:mID="38" v:groupContext="shape" v:layerMember="0" transform="translate(180,-673.74)">
			<title>Dynamic connector.76</title>
			<path d="M0 792 L5.56 792 A9 9 -180 0 0 11.52 789.75 A3 3 0 0 1 15.48 789.75 A9 9 -180 0 0 21.44 792 L36 792 A9 9 0 0
						 1 45 801 L45 981 A9 9 -180 0 0 54 990 L60.87 990 A9 9 -180 0 0 66.83 987.74 A3.01644 3.01644 0 0 1 70.83
						 987.74 A9 9 -180 0 0 76.8 990 L119.46 990" class="st7"/>
		</g>
		<g id="shape39-151" v:mID="39" v:groupContext="shape" transform="translate(72,-256.5)">
			<title>Rectangle.78</title>
			<desc>period</desc>
			<v:userDefs>
				<v:ud v:nameU="visVersion" v:val="VT0(15):26"/>
			</v:userDefs>
			<v:textBlock v:margins="rect(4,4,4,4)"/>
			<v:textRect cx="54" cy="783" width="108" height="18"/>
			<rect x="0" y="774" width="108" height="18" class="st5"/>
			<text x="41.14" y="786" class="st2" v:langID="1033"><v:paragraph v:horizAlign="1"/><v:tabList/>period</text>		</g>
		<g id="shape40-154" v:mID="40" v:groupContext="shape" v:layerMember="0" transform="translate(180,-649.26)">
			<title>Dynamic connector.81</title>
			<path d="M0 792 L5.56 792 A9 9 -180 0 0 11.52 789.75 A3 3 0 0 1 15.48 789.75 A9 9 -180 0 0 21.44 792 L36 792 A9 9 0 0
						 1 45 801 L45 956.52 A9 9 -180 0 0 54 965.52 L60.87 965.52 A9 9 -180 0 0 66.83 963.26 A3.01644 3.01644 0
						 0 1 70.83 963.26 A9 9 -180 0 0 76.8 965.52 L119.46 965.52" class="st7"/>
		</g>
		<g id="shape41-159" v:mID="41" v:groupContext="shape" v:layerMember="0" transform="translate(180,-339.75)">
			<title>Dynamic connector.82</title>
			<path d="M0 792 L36 792 A9 9 -180 0 0 45 783 L45 665.01 A9 9 0 0 1 54 656.01 L60.87 656.01 A9 9 -180 0 0 66.83 653.75
						 A3.01644 3.01644 0 0 1 70.83 653.75 A9 9 -180 0 0 76.8 656.01 L119.46 656.01" class="st7"/>
		</g>
		<g id="shape42-164" v:mID="42" v:groupContext="shape" v:layerMember="0" transform="translate(180,-625.5)">
			<title>Dynamic connector.83</title>
			<path d="M0 792 L5.56 792 A9 9 -180 0 0 11.52 789.75 A3 3 0 0 1 15.48 789.75 A9 9 -180 0 0 21.44 792 L36 792 A9 9 0 0
						 1 45 801 L45 932.76 A9 9 -180 0 0 54 941.76 L60.87 941.76 A9 9 -180 0 0 66.83 939.5 A3.01644 3.01644 0 0
						 1 70.83 939.5 A9 9 -180 0 0 76.8 941.76 L119.46 941.76" class="st7"/>
		</g>
		<g id="shape43-169" v:mID="43" v:groupContext="shape" v:layerMember="0" transform="translate(180,-603)">
			<title>Dynamic connector.84</title>
			<path d="M0 792 L5.56 792 A9 9 -180 0 0 11.52 789.75 A3 3 0 0 1 15.48 789.75 A9 9 -180 0 0 21.44 792 L36 792 A9 9 0 0
						 1 45 801 L45 910.26 A9 9 -180 0 0 54 919.26 L60.87 919.26 A9 9 -180 0 0 66.83 917 A3.01644 3.01644 0 0 1
						 70.83 917 A9 9 -180 0 0 76.8 919.26 L119.46 919.26" class="st7"/>
		</g>
		<g id="shape44-174" v:mID="44" v:groupContext="shape" v:layerMember="0" transform="translate(180,-697.5)">
			<title>Dynamic connector.85</title>
			<path d="M0 792 L59.85 792 A9 9 0 0 1 68.85 801 L68.85 1035.27 A9 9 -180 0 0 77.85 1044.27 L119.46 1044.27" class="st9"/>
		</g>
		<g id="shape45-180" v:mID="45" v:groupContext="shape" v:layerMember="0" transform="translate(180,-673.74)">
			<title>Dynamic connector.86</title>
			<path d="M0 792 L5.56 792 A9 9 -180 0 0 11.52 789.75 A3 3 0 0 1 15.48 789.75 A9 9 -180 0 0 21.44 792 L37.06 792 A9 9
						 -180 0 0 43.02 789.75 A3 3 0 0 1 46.98 789.75 A9 9 -180 0 0 52.94 792 L59.82 792 A9 9 0 0 1 68.82 801 L68.82
						 1011.51 A9 9 -180 0 0 77.82 1020.51 L119.46 1020.51" class="st9"/>
		</g>
		<g id="shape46-185" v:mID="46" v:groupContext="shape" v:layerMember="0" transform="translate(180,-649.26)">
			<title>Dynamic connector.87</title>
			<path d="M0 792 L5.56 792 A9 9 -180 0 0 11.52 789.75 A3 3 0 0 1 15.48 789.75 A9 9 -180 0 0 21.44 792 L37.06 792 A9 9
						 -180 0 0 43.02 789.75 A3 3 0 0 1 46.98 789.75 A9 9 -180 0 0 52.94 792 L59.85 792 A9 9 0 0 1 68.85 801 L68.85
						 987.03 A9 9 -180 0 0 77.85 996.03 L119.46 996.03" class="st9"/>
		</g>
		<g id="shape47-190" v:mID="47" v:groupContext="shape" v:layerMember="0" transform="translate(180,-265.5)">
			<title>Dynamic connector.88</title>
			<path d="M0 792 L63 792 A9 9 -180 0 0 72 783 L72 621.27 A9 9 0 0 1 81 612.27 L119.46 612.27" class="st9"/>
		</g>
		<g id="shape48-195" v:mID="48" v:groupContext="shape" v:layerMember="0" transform="translate(180,-579.24)">
			<title>Dynamic connector.89</title>
			<path d="M0 792 L5.56 792 A9 9 -180 0 0 11.52 789.75 A3 3 0 0 1 15.48 789.75 A9 9 -180 0 0 21.44 792 L37.06 792 A9 9
						 -180 0 0 43.02 789.75 A3 3 0 0 1 46.98 789.75 A9 9 -180 0 0 52.94 792 L59.85 792 A9 9 0 0 1 68.85 801 L68.85
						 917.01 A9 9 -180 0 0 77.85 926.01 L119.46 926.01" class="st9"/>
		</g>
		<g id="shape49-200" v:mID="49" v:groupContext="shape" v:layerMember="0" transform="translate(180,-554.76)">
			<title>Dynamic connector.90</title>
			<path d="M0 792 L5.56 792 A9 9 -180 0 0 11.52 789.75 A3 3 0 0 1 15.48 789.75 A9 9 -180 0 0 21.44 792 L37.06 792 A9 9
						 -180 0 0 43.02 789.75 A3 3 0 0 1 46.98 789.75 A9 9 -180 0 0 52.94 792 L59.85 792 A9 9 0 0 1 68.85 801 L68.85
						 892.53 A9 9 -180 0 0 77.85 901.53 L119.46 901.53" class="st9"/>
		</g>
		<g id="shape50-205" v:mID="50" v:groupContext="shape" v:layerMember="0" transform="translate(180,-315)">
			<title>Dynamic connector.91</title>
			<path d="M0 792 L63 792 A9 9 -180 0 0 72 783 L72 670.77 A9 9 0 0 1 81 661.77 L119.46 661.77" class="st9"/>
		</g>
		<g id="shape51-210" v:mID="51" v:groupContext="shape" v:layerMember="0" transform="translate(180,-290.25)">
			<title>Dynamic connector.92</title>
			<path d="M0 792 L63 792 A9 9 -180 0 0 72 783 L72 646.02 A9 9 0 0 1 81 637.02 L119.46 637.02" class="st9"/>
		</g>
	</g>
</svg>
